<svg width="67" height="60" viewBox="0 0 67 60" fill="none" xmlns="http://www.w3.org/2000/svg">
<path d="M25.9855 60C24.0077 60 22.1108 59.2098 20.7123 57.8033C19.3137 56.3968 18.528 54.4891 18.528 52.5C18.528 50.5109 19.3137 48.6032 20.7123 47.1967C22.1108 45.7902 24.0077 45 25.9855 45C27.9634 45 29.8602 45.7902 31.2587 47.1967C32.6573 48.6032 33.443 50.5109 33.443 52.5C33.443 54.4891 32.6573 56.3968 31.2587 57.8033C29.8602 59.2098 27.9634 60 25.9855 60ZM52.0867 60C50.1088 60 48.212 59.2098 46.8134 57.8033C45.4149 56.3968 44.6292 54.4891 44.6292 52.5C44.6292 50.5109 45.4149 48.6032 46.8134 47.1967C48.212 45.7902 50.1088 45 52.0867 45C54.0645 45 55.9613 45.7902 57.3599 47.1967C58.7584 48.6032 59.5441 50.5109 59.5441 52.5C59.5441 54.4891 58.7584 56.3968 57.3599 57.8033C55.9613 59.2098 54.0645 60 52.0867 60ZM3.47141 7.21125C2.54057 7.18106 1.6579 6.78795 1.01006 6.11506C0.36222 5.44217 0 4.54226 0 3.60562C0 2.66899 0.36222 1.76908 1.01006 1.09619C1.6579 0.423302 2.54057 0.0301943 3.47141 0L7.76318 0C11.1265 0 14.0349 2.3475 14.7657 5.6475L19.4379 26.805C20.1687 30.105 23.0771 32.4525 26.4404 32.4525H54.4507L59.8275 10.815H24.9825C24.0604 10.7727 23.19 10.3745 22.5524 9.70332C21.9148 9.03212 21.559 8.13955 21.559 7.21125C21.559 6.28295 21.9148 5.39038 22.5524 4.71918C23.19 4.04798 24.0604 3.64982 24.9825 3.6075H59.8275C60.9176 3.60718 61.9933 3.85679 62.973 4.33738C63.9527 4.81796 64.8106 5.51686 65.4814 6.38094C66.1522 7.24502 66.6183 8.25154 66.8443 9.32399C67.0702 10.3964 67.0501 11.5066 66.7853 12.57L61.4085 34.2C61.0227 35.7617 60.1277 37.1484 58.8666 38.1387C57.6054 39.1291 56.0507 39.666 54.4507 39.6637H26.4404C23.177 39.6642 20.0111 38.5452 17.4654 36.4916C14.9198 34.438 13.1467 31.5727 12.439 28.3687L7.76318 7.21125H3.47141Z" fill="white"/>
</svg>
