<svg width="48" height="48" viewBox="0 0 48 48" fill="none" xmlns="http://www.w3.org/2000/svg">
<path d="M43.611 19.083H42V19H24V27H35.303C33.654 31.657 29.223 35 24 35C17.373 35 12 29.627 12 23C12 16.373 17.373 11 24 11C27.059 11 29.842 12.154 31.961 14.039L37.618 8.382C34.046 5.053 29.268 3 24 3C12.955 3 4 11.955 4 23C4 34.045 12.955 43 24 43C35.045 43 44 34.045 44 23C44 21.659 43.862 20.35 43.611 19.083Z" fill="#FFC107"/>
<path d="M6.30591 13.691L12.8769 18.51C14.6549 14.108 18.9609 11 23.9999 11C27.0589 11 29.8419 12.154 31.9609 14.039L37.6179 8.382C34.0459 5.053 29.2679 3 23.9999 3C16.3179 3 9.65591 7.337 6.30591 13.691Z" fill="#FF3D00"/>
<path d="M24.0001 43C29.1661 43 33.8601 41.023 37.4091 37.808L31.2191 32.57C29.144 34.1491 26.6076 35.0028 24.0001 35C18.7981 35 14.3811 31.683 12.7171 27.054L6.19507 32.079C9.50507 38.556 16.2271 43 24.0001 43Z" fill="#4CAF50"/>
<path d="M43.611 19.083H42V19H24V27H35.303C34.5142 29.2164 33.0934 31.1532 31.216 32.571L31.219 32.569L37.409 37.807C36.971 38.205 44 33 44 23C44 21.659 43.862 20.35 43.611 19.083Z" fill="#1976D2"/>
</svg>
