<svg width="70" height="62" viewBox="0 0 70 62" fill="none" xmlns="http://www.w3.org/2000/svg">
<path d="M67 9.20298C67 9.20298 25.1449 6.57903 23.8224 6.05075C22.5 5.52246 24.5 4 24.5 4H14.5L12 5V6.05075L16.6262 18.6597L19.1963 31.794L23.8224 36.5224L59.2897 35.997L67 9.20298Z" fill="#392115"/>
<path d="M26.8517 62C24.8079 62 22.8479 61.1835 21.4027 59.7301C19.9575 58.2767 19.1456 56.3054 19.1456 54.25C19.1456 52.1946 19.9575 50.2233 21.4027 48.7699C22.8479 47.3165 24.8079 46.5 26.8517 46.5C28.8955 46.5 30.8555 47.3165 32.3007 48.7699C33.7459 50.2233 34.5578 52.1946 34.5578 54.25C34.5578 56.3054 33.7459 58.2767 32.3007 59.7301C30.8555 61.1835 28.8955 62 26.8517 62ZM53.8229 62C51.7791 62 49.819 61.1835 48.3739 59.7301C46.9287 58.2767 46.1168 56.3054 46.1168 54.25C46.1168 52.1946 46.9287 50.2233 48.3739 48.7699C49.819 47.3165 51.7791 46.5 53.8229 46.5C55.8667 46.5 57.8267 47.3165 59.2719 48.7699C60.7171 50.2233 61.5289 52.1946 61.5289 54.25C61.5289 56.3054 60.7171 58.2767 59.2719 59.7301C57.8267 61.1835 55.8667 62 53.8229 62ZM3.58712 7.45162C2.62526 7.42042 1.71317 7.01421 1.04373 6.31889C0.374294 5.62358 0 4.69367 0 3.72581C0 2.75796 0.374294 1.82805 1.04373 1.13273C1.71317 0.437412 2.62526 0.0312008 3.58712 0L8.02196 0C11.4974 0 14.5027 2.42575 15.2579 5.83575L20.0858 27.6985C20.841 31.1085 23.8463 33.5342 27.3218 33.5342H56.2657L61.8218 11.1755H25.8152C24.8624 11.1318 23.963 10.7203 23.3042 10.0268C22.6453 9.33319 22.2776 8.41087 22.2776 7.45162C22.2776 6.49238 22.6453 5.57006 23.3042 4.87649C23.963 4.18291 24.8624 3.77148 25.8152 3.72775H61.8218C62.9481 3.72742 64.0598 3.98535 65.0721 4.48196C66.0845 4.97856 66.971 5.70075 67.6641 6.59364C68.3573 7.48652 68.8389 8.52659 69.0724 9.63479C69.3059 10.743 69.2851 11.8901 69.0115 12.989L63.4555 35.34C63.0567 36.9538 62.132 38.3867 60.8288 39.41C59.5256 40.4334 57.9191 40.9882 56.2657 40.9859H27.3218C23.9496 40.9863 20.6781 39.8301 18.0476 37.708C15.4171 35.586 13.5849 32.6251 12.8537 29.3144L8.02196 7.45162H3.58712Z" fill="#392115"/>
</svg>
