<svg width="60" height="58" viewBox="0 0 60 58" fill="none" xmlns="http://www.w3.org/2000/svg">
<ellipse cx="30" cy="31" rx="25" ry="27" fill="#7F5F42"/>
<path fill-rule="evenodd" clip-rule="evenodd" d="M29.9999 3.18633e-10C33.9396 -1.78513e-05 37.8407 0.750074 41.4804 2.20745C45.1202 3.66482 48.4274 5.80094 51.2132 8.49384C53.9989 11.1867 56.2087 14.3837 57.7164 17.9021C59.224 21.4206 60 25.1916 60 28.9999C60 45.0162 46.5685 58 29.9999 58C13.4315 58 0 45.0162 0 28.9999C0 12.9838 13.4315 3.18633e-10 29.9999 3.18633e-10ZM33 31.9H27C19.5729 31.9 13.1965 36.2482 10.4463 42.4553C14.7978 48.3537 21.9342 52.2 29.9999 52.2C38.0656 52.2 45.202 48.3537 49.5537 42.4549C46.8035 36.2483 40.4271 31.9 33 31.9ZM29.9999 8.69999C25.0294 8.69999 20.9999 12.5951 20.9999 17.4C20.9999 22.2048 25.0294 26.1 29.9999 26.1C34.9705 26.1 38.9999 22.2048 38.9999 17.4C38.9999 12.5951 34.9706 8.69999 29.9999 8.69999Z" fill="#FFF8F2"/>
</svg>
